{"title":"The Curious Case of Benjamin Button 2008 720p BRRip x264 MP4 AAC","uid":9490780,"size":3348007024,"categoryP":"video","categoryS":"hd___movies","magnet":"?xt=urn:btih:2e879146a118248ae6c441b309580f7ce0851bdc&amp;dn=The+Curious+Case+of+Benjamin+Button+2008+720p+BRRip+x264+MP4+AAC&amp;tr=udp%3A%2F%2Ftracker.openbittorrent.com%3A80&amp;tr=udp%3A%2F%2Fopen.demonii.com%3A1337&amp;tr=udp%3A%2F%2Ftracker.coppersurfer.tk%3A6969&amp;tr=udp%3A%2F%2Fexodus.desync.com%3A6969","seeders":2,"leechers":2,"uploader":"Caveman44","files":-1,"time":1389991058,"description":" &lt;a href=&quot;http://www.imdb.com/title/tt0421715&quot; rel=&quot;nofollow&quot; target=&quot;_NEW&quot;&gt;http://www.imdb.com/title/tt0421715&lt;/a&gt;\n\nSource:The.Curious.Case.of.Benjamin.Button.2008.Bluray.720p.DTSHD.x264-CHD Thanks!\n\nSubs: Arabic, Brazilian, Danish, Dutch, English, Estonian, Farsi-Persian, Finnish, French, Hebrew, Norwegian, Portuguese, Swedish, Turkish.\n\nSample and Screens included.\n\nGeneral\nComplete name                            : The Curious Case of Benjamin Button 2008 720p BRRip x264 MP4 AAC-CC.mp4\nFormat                                   : MPEG-4\nFormat profile                           : Base Media\nCodec ID                                 : isom\nFile size                                : 3.08 GiB\nDuration                                 : 2h 46mn\nOverall bit rate mode                    : Variable\nOverall bit rate                         : 2 657 Kbps\nEncoded date                             : UTC 2013-12-28 10:39:28\nTagged date                              : UTC 2013-12-28 10:39:28\nWriting application                      : Yamb 2.1.0.0\n\nVideo\nID                                       : 1\nFormat                                   : AVC\nFormat/Info                              : Advanced Video Codec\nFormat profile                           : &lt;a class=&quot;__cf_email__&quot; href=&quot;/cdn-cgi/l/email-protection&quot; data-cfemail=&quot;fab2939d92bab6ced4cb&quot;&gt;[email&amp;#160;protected]&lt;/a&gt;&lt;script cf-hash='f9e31' type=&quot;text/javascript&quot;&gt;\n/* &lt;![CDATA[ */!function(){try{var t=&quot;currentScript&quot;in document?document.currentScript:function(){for(var t=document.getElementsByTagName(&quot;script&quot;),e=t.length;e--;)if(t[e].getAttribute(&quot;cf-hash&quot;))return t[e]}();if(t&amp;&amp;t.previousSibling){var e,r,n,i,c=t.previousSibling,a=c.getAttribute(&quot;data-cfemail&quot;);if(a){for(e=&quot;&quot;,r=parseInt(a.substr(0,2),16),n=2;a.length-n;n+=2)i=parseInt(a.substr(n,2),16)^r,e+=String.fromCharCode(i);e=document.createTextNode(e),c.parentNode.replaceChild(e,c)}}}catch(u){}}();/* ]]&gt; */&lt;/script&gt;\nFormat settings, CABAC                   : Yes\nFormat settings, ReFrames                : 5 frames\nCodec ID                                 : avc1\nCodec ID/Info                            : Advanced Video Coding\nDuration                                 : 2h 46mn\nBit rate                                 : 2 348 Kbps\nMaximum bit rate                         : 26.0 Mbps\nWidth                                    : 1 280 pixels\nHeight                                   : 532 pixels\nDisplay aspect ratio                     : 2.40:1\nFrame rate mode                          : Variable\nFrame rate                               : 23.976 fps\nMinimum frame rate                       : 15.932 fps\nMaximum frame rate                       : 24.390 fps\nColor space                              : YUV\nChroma subsampling                       : 4:2:0\nBit depth                                : 8 bits\nScan type                                : Progressive\nBits/(Pixel*Frame)                       : 0.144\nStream size                              : 2.63 GiB (85%)\nWriting library                          : x264 core 112\nEncoding settings                        : cabac=1 / ref=5 / deblock=1:0:0 / analyse=0x3:0x113 / me=hex / subme=7 / psy=1 / psy_rd=1.00:0.00 / mixed_ref=1 / me_range=16 / chroma_me=1 / trellis=1 / 8x8dct=1 / cqm=0 / deadzone=21,11 / fast_pskip=1 / chroma_qp_offset=-2 / threads=3 / sliced_threads=0 / nr=0 / decimate=1 / interlaced=0 / constrained_intra=0 / bframes=5 / b_pyramid=2 / b_adapt=2 / b_bias=0 / direct=1 / weightb=1 / open_gop=0 / weightp=2 / keyint=240 / keyint_min=23 / scenecut=40 / intra_refresh=0 / rc_lookahead=50 / rc=abr / mbtree=1 / bitrate=2348 / ratetol=1.0 / qcomp=0.60 / qpmin=3 / qpmax=51 / qpstep=4 / ip_ratio=1.40 / aq=1:1.00\nEncoded date                             : UTC 2013-12-28 21:54:02\nTagged date                              : UTC 2013-12-28 10:44:57\nColor primaries                          : BT.709\nTransfer characteristics                 : BT.709\nMatrix coefficients                      : BT.709\n\nAudio\nID                                       : 2\nFormat                                   : AAC\nFormat/Info                              : Advanced Audio Codec\nFormat profile                           : LC\nCodec ID                                 : 40\nDuration                                 : 2h 46mn\nBit rate mode                            : Variable\nBit rate                                 : 384 Kbps\nMaximum bit rate                         : 679 Kbps\nChannel(s)                               : 6 channels\nChannel positions                        : Front: L C R, Side: L R, LFE\nSampling rate                            : 48.0 KHz\nCompression mode                         : Lossy\nDelay relative to video                  : 83ms\nStream size                              : 456 MiB (14%)\nEncoded date                             : UTC 2013-12-28 10:43:56\nTagged date                              : UTC 2013-12-28 10:44:57\n\nEnjoy...\n\nRequested by Clair.\n\nComing soon: There Will Be Blood, Bridge to Terabithia, District 9, High and Low and more..","torrent":{"xt":"urn:btih:2e879146a118248ae6c441b309580f7ce0851bdc","amp;dn":"The+Curious+Case+of+Benjamin+Button+2008+720p+BRRip+x264+MP4+AAC","amp;tr":["udp%3A%2F%2Ftracker.openbittorrent.com%3A80","udp%3A%2F%2Fopen.demonii.com%3A1337","udp%3A%2F%2Ftracker.coppersurfer.tk%3A6969","udp%3A%2F%2Fexodus.desync.com%3A6969"],"infoHash":"2e879146a118248ae6c441b309580f7ce0851bdc","infoHashBuffer":{"type":"Buffer","data":[46,135,145,70,161,24,36,138,230,196,65,179,9,88,15,124,224,133,27,220]},"announce":[],"urlList":[]}}